<svg width="114" height="116" xmlns="http://www.w3.org/2000/svg" xmlns:xlink="http://www.w3.org/1999/xlink" xml:space="preserve" overflow="hidden"><defs><clipPath id="clip0"><rect x="49" y="320" width="113" height="116"/></clipPath><clipPath id="clip1"><rect x="49" y="320" width="113" height="116"/></clipPath><clipPath id="clip2"><rect x="49" y="320" width="113" height="116"/></clipPath></defs><g transform="translate(-48 -320)"><g><g clip-path="url(#clip0)"><g clip-path="url(#clip1)"><g clip-path="url(#clip2)"><path d="M418.765 97.7118 531.765 97.7118 531.765 210.712 418.765 210.712Z" fill="#941100" fill-rule="nonzero" fill-opacity="1" transform="matrix(1 0 0 1.01461 -369.765 221.535)"/><path d="M513.976 117.686 504.226 120.039C500.95 120.83 498.26 123.159 497.009 126.287L493.411 135.295 486.357 133.689 485.774 127.713 488.582 123.098 485.358 123.413 482.997 121.469 481.053 123.829 477.829 124.144 481.474 128.129 482.208 135.655C482.298 136.58 482.97 137.344 483.877 137.552L490.423 139.046 489.838 139.631 481.953 143.165C473.391 147.004 466.429 153.698 462.256 162.102L461.143 157.23C460.936 156.324 460.173 155.652 459.247 155.561L451.721 154.827 447.736 151.187 447.422 154.413 445.062 156.357 447.006 158.717 446.692 161.942 451.306 159.134 457.282 159.718 459.334 168.682C457.866 172.128 454.878 174.695 451.251 175.627 446.115 176.882 441.615 176.176 438.673 173.236 431.519 166.086 438.723 149.948 449.125 138.391 449.669 137.789 449.646 136.868 449.073 136.293 448.776 135.997 448.371 135.835 447.952 135.842 447.538 135.849 447.144 136.025 446.863 136.33 433.62 150.624 424.878 169.671 435.21 180.001 441.951 186.742 454.328 185.929 466.026 178.981 466.606 178.632 467.208 178.32 467.827 178.045 468.218 177.875 468.654 177.833 469.071 177.928L477.397 179.83 477.98 185.805 475.172 190.42 478.397 190.105 480.757 192.049 482.701 189.689 485.927 189.375 482.285 185.384 481.551 177.859C481.46 176.934 480.788 176.171 479.882 175.964L475.01 174.852C483.412 170.677 490.104 163.714 493.942 155.152L497.476 147.268 498.06 146.683 499.555 153.229C499.762 154.135 500.526 154.807 501.451 154.898L508.977 155.632 512.962 159.277 513.276 156.054 515.636 154.109 513.692 151.75 514.008 148.525 509.392 151.333 503.416 150.75 501.807 143.701 510.814 140.097C513.945 138.848 516.275 136.158 517.067 132.881L519.42 123.131C520.004 120.707 518.514 118.27 516.09 117.686 515.396 117.518 514.671 117.518 513.976 117.686Z" fill="#F2F2F2" fill-rule="nonzero" fill-opacity="1" transform="matrix(1 0 0 1.01461 -369.765 221.535)"/></g></g></g></g></g></svg>